<?xml version="1.0" encoding="utf-8"?><!-- Uploaded to: SVG Repo, www.svgrepo.com, Generator: SVG Repo Mixer Tools -->
<svg width="800px" height="800px" viewBox="0 0 24 24" fill="none" xmlns="http://www.w3.org/2000/svg">
<path d="M13.75 16.25C13.6515 16.2505 13.5538 16.2313 13.4628 16.1935C13.3718 16.1557 13.2893 16.1001 13.22 16.03L9.72001 12.53C9.57956 12.3894 9.50067 12.1988 9.50067 12C9.50067 11.8013 9.57956 11.6107 9.72001 11.47L13.22 8.00003C13.361 7.90864 13.5285 7.86722 13.6958 7.88241C13.8631 7.89759 14.0205 7.96851 14.1427 8.08379C14.2649 8.19907 14.3448 8.35203 14.3697 8.51817C14.3946 8.68431 14.363 8.85399 14.28 9.00003L11.28 12L14.28 15C14.4205 15.1407 14.4994 15.3313 14.4994 15.53C14.4994 15.7288 14.4205 15.9194 14.28 16.06C14.1353 16.1907 13.9448 16.259 13.75 16.25Z" fill="#000000"/>
</svg>